<?xml version="1.0" encoding="UTF-8"?>
<svg id="Layer_1" xmlns="http://www.w3.org/2000/svg" version="1.1" viewBox="0 0 1024 1024">
  <!-- Generator: Adobe Illustrator 30.1.0, SVG Export Plug-In . SVG Version: 2.1.1 Build 136)  -->
  <defs>
    <style>
      .st0 {
        fill: #fff;
      }
    </style>
  </defs>
  <g id="Foggy">
    <path class="st0" d="M701.7,335.7c47.1-2.9,89.3,25,103.3,70.2,22.1,71.2-31.8,132.3-101.7,137.8h-356.1c-79-5.4-129.9-85.8-102.2-160.3s72.4-85.1,127.6-82.9c10.8-38.2,34.6-73.5,67.4-96.1,44.1-30.5,102.5-37.4,153-19.5,62.2,22.1,108.6,84.1,108.7,150.8Z"/>
    <path class="st0" d="M297.4,595.9l427.7-.2c22.1,2.2,25.9,30.6,5.1,38-144.5,2.2-289.4.3-434.1,1-22.9-5.7-21.2-34.3,1.3-38.8h0Z"/>
    <path class="st0" d="M285,717.3c-10.9-10.2-6.6-27,6.8-32,92-1.5,184.3-.3,276.4-.6,48.6-.2,105.1-4.9,153-1.1,29.9,2.4,28.3,36.7,2,39.1h-425.1c-4.1-.3-10.1-2.6-13.1-5.4h0Z"/>
    <path class="st0" d="M295.4,772.9l432.7-.3c19.6,2.4,22.6,30.9,3.5,36.5-14,4.1-38.5.5-53.5.4-127.7-1-255.4.8-383.1,0-20.9-4.7-20.2-32,.3-36.8v.2Z"/>
  </g>
</svg>