<!--?xml version="1.0" encoding="UTF-8"?-->
<svg id="Layer_1" xmlns="http://www.w3.org/2000/svg" version="1.1" viewBox="0 0 1024 1024">
  <defs>
    <style>
      .st0 {
        fill: #fff;
      }

      .st1 {
        fill: #fed700;
      }
    </style>
  </defs>
  <g id="PartlyCloudy_x5F_Day">
    <path class="st0" d="M692.4,445.6c18,21,29.7,46.7,33.7,74.2,39.3,5,75.2,26.9,91.7,63.8,29.1,65-12.4,135.9-80.6,148.1-107.7,3-215.9.4-323.8,1.3-130.4-13-126-202.4,5.1-212,4.4-.3,18.7,1,21.1-.9,3-8.6,4.6-17.7,7.6-26.4,36-102.2,173.3-132,245.2-48.2h0Z"></path>
    <path class="st1" d="M336.4,539.4c-.4.3-.3,1.4-1,1.6-2.3.2-9-6-10.9-8-47.4-48.2-41.4-127.2,11.6-168.4,55.2-42.9,136.2-25.7,170.9,33.9-39.9,22.2-71.3,57.8-80.4,103.5-8.5,1.9-17.8,1.7-26.6,3.4-29.1,5.5-41.6,16.8-63.5,34h-.1Z"></path>

    <!-- normalized sun rays -->
    <path class="st1" d="M220.7,439.2c7.4-1.2,38.6-.9,45.3,1.2s8.9,18.3-.6,21.5l-47.8-.2c-11.6-5.1-9.6-20.4,3-22.5h.1Z"></path>
    <path class="st1" d="M408.5,256.5c5.3-.5,10.4,4.3,11.3,9.2,1.6,8.5,1.2,37.5.3,46.8-1.5,15.4-20.4,15.8-22.8,1.7s-1.2-43.8.2-49.3,5.9-8,11-8.5h0Z"></path>
    <path class="st1" d="M537.8,309.2c10.5-1.4,14.5,11.2,8.7,18.7l-34.1,33.9c-13.5,5.2-22.3-5.8-13.8-17.8,3.5-4.9,30.1-31.2,34.7-33.3s3.1-1.4,4.4-1.6h0Z"></path>
    <path class="st1" d="M301.8,542.2c10.2-1.9,17.1,9.3,11.3,18.3s-31.5,32.5-34.5,34.5c-4.9,3.2-9.5,3.6-14.5.4s-6.5-10.3-2.5-16.4,25.8-27.1,31.4-31.6,6.4-4.9,8.8-5.3h0Z"></path>
    <path class="st1" d="M274.7,310.2c4.3-1,7.7,0,11.2,2.4,5,3.4,29.5,28.8,32.1,33.9,6,11.8-5.4,21.5-17.4,13.4-5.3-3.6-24.4-22.9-28.6-28.4-4.1-5.3-7.3-10.5-3-17s3.8-3.8,5.7-4.3h0Z"></path>
  </g>
</svg>