<?xml version="1.0" encoding="UTF-8"?>
<svg id="Layer_1" xmlns="http://www.w3.org/2000/svg" version="1.1" viewBox="0 0 1024 1024">
  <!-- Generator: Adobe Illustrator 30.1.0, SVG Export Plug-In . SVG Version: 2.1.1 Build 136)  -->
  <defs>
    <style>
      .st0 {
        fill: #fff;
      }

      .st1 {
        fill: silver;
      }
    </style>
  </defs>
  <g id="PartlyCloudy_x5F_Night">
    <path class="st0" d="M437.4,532.4c13.3-84.9,95.9-142.9,180.5-119.4,46.9,13,84,51.7,96.5,98.5,12.5,46.8,2.5,17.8,4.5,25.5,1.8,6.9,9.8,4.1,15.1,4.9,122.1,17.1,117.1,201.9-15.8,207.9-105.5,4.7-215.2-2.8-321-1.1-93.2-12.4-126.3-127.8-54.5-189.5,23.5-20.2,49-26.2,79.6-25.5,5.1,0,10.4,3.2,15.1-1.3h0Z"/>
    <path class="st1" d="M419.6,512.6c-40.3-5.1-80.4,14.1-105.4,45-69.9-89.4-49-223.7,42.2-289.8,29.6-21.5,70-37.1,106.8-39.2,7.3-.4,24.8-1.8,18.4,10.4-1.6,3-17.4,14-21.4,17.6-61.1,55.3-71.4,145.3-23.6,212.7-7.4,13.6-13.6,28-16.9,43.2h-.1Z"/>
  </g>
</svg>