<!--?xml version="1.0" encoding="UTF-8"?-->
<svg id="Layer_1" xmlns="http://www.w3.org/2000/svg" version="1.1" viewBox="0 0 1024 1024">
  <defs>
    <style>
      .st0 {
        fill: #69c;
      }

      .st1 {
        fill: #fff;
      }
    </style>
  </defs>
  <g id="Rain">
    <!-- Original cloud kept exactly as-is -->
    <path class="st1" d="M681.7,363.7c46.3-2.9,90.6,21.7,108.5,65,30.1,72.8-26.7,147.9-102.9,148h-339.1c-56.1-1.4-103.2-38.4-114.1-93.9-15.5-78.6,47.1-152.4,127.1-148.1,1.9.1,7.3.4,8.6-.5,10.2-33.6,28.1-65.1,55.5-87.5,54.1-44.2,132.4-48.7,189.8-7.8,40.1,28.6,64.8,75.5,66.7,124.8h0Z"></path>

    <!-- Revised rain drops: chunkier, lower, wider spaced -->
    <path class="st0" d="M344,654c10,0,18,7,24,17c12,18,29,42,29,67c0,34-24,55-53,55s-53-21-53-55c0-25,17-49,29-67c7-10,15-17,24-17Z"></path>
    <path class="st0" d="M512,648c10,0,18,7,24,17c12,18,29,42,29,67c0,34-24,55-53,55s-53-21-53-55c0-25,17-49,29-67c7-10,15-17,24-17Z"></path>
    <path class="st0" d="M680,654c10,0,18,7,24,17c12,18,29,42,29,67c0,34-24,55-53,55s-53-21-53-55c0-25,17-49,29-67c7-10,15-17,24-17Z"></path>
  </g>
</svg>