<!--?xml version="1.0" encoding="UTF-8"?-->
<svg id="Layer_1" xmlns="http://www.w3.org/2000/svg" version="1.1" viewBox="0 0 1024 1024">
  <defs>
    <style>
      .st0 {
        fill: #5590cc;
      }

      .st1 {
        fill: #fff;
      }

      .st2 {
        fill: #fed700;
      }
    </style>
  </defs>
  <g id="Showers_x5F_Day">
    <!-- Cloud kept exactly as-is -->
    <path class="st1" d="M767.7,471c79.1-5.5,139.4,72.5,107.4,147.3-16.3,38-54.6,64.3-95.9,67.1h-355.6c-90.2-5.7-143.3-98.3-99.1-179.1,24.5-44.7,75.2-70.8,126-63.8,13.3-56.9,61.3-106.4,117.9-121.1,99.1-25.7,196.2,48.3,199.3,149.6h0Z"></path>

    <!-- Main sun kept as-is -->
    <path class="st2" d="M436.1,421.6c-42.3-2.4-81.7,16.3-107.8,49.2-76.3-39.4-80.5-149.1-11-198.1s160.8-17.6,180,62.9c-6.9,7.7-15.2,13.9-22.3,21.6-17.1,18.5-30.5,40.7-39,64.4h.1Z"></path>

    <!-- Revised rain drops: matched to rain.svg style -->
    <path class="st0" d="M379,748c10,0,18,7,24,17c12,18,29,42,29,67c0,34-24,55-53,55s-53-21-53-55c0-25,17-49,29-67c7-10,15-17,24-17Z"></path>
    <path class="st0" d="M548,736c10,0,18,7,24,17c12,18,29,42,29,67c0,34-24,55-53,55s-53-21-53-55c0-25,17-49,29-67c7-10,15-17,24-17Z"></path>
    <path class="st0" d="M717,748c10,0,18,7,24,17c12,18,29,42,29,67c0,34-24,55-53,55s-53-21-53-55c0-25,17-49,29-67c7-10,15-17,24-17Z"></path>

    <!-- Sun rays: same shapes, just lightly strengthened for readability -->
    <path class="st2" d="M164.4,376.7c-7.8-7.6-3.1-20.6,7.5-22.2c9.5-1.4,51.3-1.5,60.7,0c10.6,1.7,15.3,24-3.7,26.3c-12.3,1.5-41.4,1.4-53.9.1c-3.2-.3-8.1-1.5-10.6-4.2Z"></path>
    <path class="st2" d="M378.4,215.9c-1.7-1.8-2.8-4.1-3-6.6c-1.4-11.7-1.3-47.8.1-59.3c2.4-16.8,23-16.2,25.2,2.3c1.9,15.7-3.3,37.9-1.1,54.4c-1,10.8-13.8,16.5-21.2,9.2Z"></path>
    <path class="st2" d="M537.6,204.8c11.8-2.4,18.8,8.7,13,19.1c-3.1,5.6-32.1,35.2-38,39.6c-12.9,9.5-26.8-3-18.2-15.9c5.1-7.8,29.2-32.4,37-38.1c1.8-1.3,4.1-3.2,6.2-4.7Z"></path>
    <path class="st2" d="M273.8,470.8c11-.4,16.8,14,9.1,22c-13.4,10.1-25.7,28-39.2,37c-13.5,9-25.2-3.4-17.6-16.6c12.1-10.9,24.4-25.8,36.9-35.9c3.2-2.6,6.5-5.9,10.8-6.5Z"></path>
    <path class="st2" d="M233.7,206.9c5.8-1.3,8.9-.3,13.4,2.9c6.8,4.7,27.5,25.5,33.9,32.2c12.4,13.5,8.4,29.2-11.3,23.9c-9.9-10.8-22.4-19.7-32.1-30.8c-3.6-4.2-10.5-11.2-10.9-16.7c-.4-5.1,2.6-10.6,8-11.5Z"></path>
  </g>
</svg>