<!--?xml version="1.0" encoding="UTF-8"?-->
<svg id="Layer_1" xmlns="http://www.w3.org/2000/svg" version="1.1" viewBox="0 0 1024 1024">
  <defs>
    <style>
      .st0 {
        fill: #69c;
      }

      .st1 {
        fill: #fff;
      }

      .st2 {
        fill: silver;
      }
    </style>
  </defs>
  <g id="showers_x5F_night">
    <!-- Cloud kept exactly as-is -->
    <path class="st1" d="M732.3,444.3c71.2-3.7,125.3,67.4,96.2,134.7-16.1,37.2-52.4,59.9-92.6,61.4h-317.1c-88.1-2.7-139.7-99.5-89.7-173.8,24-35.6,65.6-53.1,108.1-49.4,22.8-88.8,118.3-139.8,204.5-102.7,51,21.9,88.3,73.9,90.6,129.9h0Z"></path>

    <!-- Moon kept exactly as-is -->
    <path class="st2" d="M434.1,152.6c1.3,1.3,1.9,5,.3,6.3-81.6,24.2-117,125.6-73.8,197.8,10.5,17.5,24.9,31.3,40.8,43.7-33.5,6-61.1,26.7-82,52.6l-1.3.3c-80.8-41.7-105.3-150.8-58.5-227.2,28.2-46,78.2-75,132.3-77.7,6.8-.3,38.3.3,42.3,4.3h0Z"></path>

    <!-- Revised rain drops: matched to rain.svg / showers-day style -->
    <path class="st0" d="M438,678c10,0,18,7,24,17c12,18,29,42,29,67c0,34-24,55-53,55s-53-21-53-55c0-25,17-49,29-67c7-10,15-17,24-17Z"></path>
    <path class="st0" d="M570,678c10,0,18,7,24,17c12,18,29,42,29,67c0,34-24,55-53,55s-53-21-53-55c0-25,17-49,29-67c7-10,15-17,24-17Z"></path>
    <path class="st0" d="M705,678c10,0,18,7,24,17c12,18,29,42,29,67c0,34-24,55-53,55s-53-21-53-55c0-25,17-49,29-67c7-10,15-17,24-17Z"></path>
  </g>
</svg>