<!--?xml version="1.0" encoding="UTF-8"?-->
<svg id="Thunderstorm" xmlns="http://www.w3.org/2000/svg" version="1.1" viewBox="0 0 1024 1024">
  <defs>
    <style>
      .st0 {
        fill: #69c;
      }

      .st1 {
        fill: silver;
      }

      .st2 {
        fill: #fed700;
      }
    </style>
  </defs>

  <!-- Lightning bolt kept exactly as-is -->
  <path class="st2" d="M565.6,486.1c.6.2,1.7,1.6,1.5,2.4-16.4,36.4-34.8,72.1-49,109.5,5.3-.8,10.5.8,15.5,1,20.8.9,46.1-2.4,66.1,0s3.7.3,3.4,2.4l-161.4,197.6c-3.9-.2-5.1-3.4-4.1-7l47.5-130.4c-.6-1.9-7.5-2.5-9.4-2.7-20.1-1.6-43.2,2-63,0s-7.1-.9-6.5-4.4l107-168.6h52.5Z"></path>

  <!-- Cloud kept exactly as-is -->
  <path class="st1" d="M600.2,566.4c-2.6-.5-191.9.9-195.6,0-35.9.1-68.8,2.8-101.4-14.5-60.3-32.1-79.9-106.1-46.5-165.5,24.2-43.1,71.2-66.2,120.4-63.1,9.1-35.1,27.9-66.5,56.2-89.3,47.5-38.1,109.4-45.1,165.9-23.1,59.2,23.1,96.2,82,100.4,144.6,1.3,1.9,13.8.6,17.1.9,104,8.1,122.4,144.1,37.1,194.2-32.1,18.9-54.9,16-90.1,15.8s-42.4.2-63.5,0Z"></path>

  <!-- Two raised drops -->
  <path class="st0" d="M356,656c10,0,18,7,24,17c12,18,29,42,29,67c0,34-24,55-53,55s-53-21-53-55c0-25,17-49,29-67c7-10,15-17,24-17Z"></path>
  <path class="st0" d="M630,656c10,0,18,7,24,17c12,18,29,42,29,67c0,34-24,55-53,55s-53-21-53-55c0-25,17-49,29-67c7-10,15-17,24-17Z"></path>
</svg>